<svg version="1.1" xmlns="http://www.w3.org/2000/svg" xmlns:xlink="http://www.w3.org/1999/xlink" x="0px" y="0px" viewBox="-342 219.6 156.7 156.7" style="enable-background:new -342 219.6 156.7 156.7;" xml:space="preserve"><style type="text/css">.design-svg .st0 {
                    fill: none;
                    stroke: #8e8e8e;
                    stroke-miterlimit: 10;
                  }</style>
                      <path class="st0" d="M-287.4,320.9l-3.2-5.5l2.3-5l7.6-3.1l66.1-62.1l4.2-1.4l2.4,3.1l-2,3.2l-62.5,65.2l-4.3,7.7l-4.5,1.9
 L-287.4,320.9 M-213,247.7l-59.5,67.6 M-280.7,307.3l3.5,4.9l4.7,3.1 M-277.2,312.2l0.4,10.8 M-214.6,245.2l1.6,2.5l3,2.4
 M-283.9,317.7l6.7-5.5 M-272.5,315.3l12.9-27.7 M-208,246.9l-5,0.8 M-288.3,310.4l4.4,7.3l7.1,5.3 M-290.6,315.1l-7.9,0.9l-8,6.1
 l-5.3,13l-3.3,3.6l-7.3,2.8l10.8,3.1l18.2-3.5l10-8.5l2.1-7.7 M-306.5,322.1l2.1,6.9l6.5,8.6l4.5,3.5 M-304.4,329l13.6-1.5
 M-297.9,337.6l7.1-10.1 M-298.5,316l7.7,11.5l7.4,5.1 M-304.4,329l-7.4,6.1 M-311.8,335.1l0.2,9.5 M-297.9,337.6l-13.7,7
 M-281.3,324.9l-9.5,2.6 M-287.4,320.9l-3.4,6.6 M-293.4,341.1l-18.4-6" style="stroke-dasharray: 654.485px; stroke-dashoffset: 363px;"></path></svg>
