<svg version="1.1" xmlns="http://www.w3.org/2000/svg" xmlns:xlink="http://www.w3.org/1999/xlink" x="0px" y="0px" viewBox="-342 219.6 156.7 156.7" style="enable-background:new -342 219.6 156.7 156.7;" xml:space="preserve"><style type="text/css">.strategy-svg .st0 {
                      fill: none;
                      stroke: #8e8e8e;
                      stroke-miterlimit: 10;
                    }</style><path class="st0" d="M-304.8,317.7l-16.3-29.9l8.7-40.4l29.1-18.8h31.3l23.9,11.9l12.4,26.3L-218,279l17.7,22l-10.6,5l-5.6,36.5
 l-6.8,3l-19.2-3l-11.8,27l-16.3-3.8l-26.2-11.3l-17.1-17.1L-304.8,317.7 M-296.8,354.4l24.6-28.1l1.6,39.4 M-242.5,342.5l3.6-54.2
 M-218,279l-20.9,9.3 M-242.5,342.5l-29.7-16.2 M-200.3,301l-17.5,2.9 M-277,279.5l-9.9,27.4 M-218,303.8V279 M-304.8,317.7
 l26.6-10.8 M-321.1,287.8l22.9-3.5 M-276.9,279.3l-7.4-6.3h-7.1l-6.9,7.7l2.2,17.1l9.2,9.1h8.7 M-278.2,306.9l6,19.4l33.3-38
 M-238.8,288.5l20.8,15.3 M-242.5,342.5l24.7-38.6 M-242.5,342.5l-34.5-63.3 M-291.4,273l13.2,33.9 M-283.3,228.6l17.4,10.3
 l13.9-10.3 M-265.9,238.9l30.1,22.3l17.8,18.1 M-228.1,240.5l-7.7,20.7 M-277.1,279.6l40.9-18.4 M-266,238.8l-55.1,49 M-215.7,266.8
 l-23.2,21.5 M-278.2,306.9l-35.7,30.4 M-238.9,288.3l-37.9-8.9 M-215.7,266.8l-20.5-5.6 M-312.5,247.3l46.4-8.4 M-217.8,303.9
 l6.9,2.1 M-266.1,238.9l37.8,1.7" style="stroke-dasharray: 1534.08px; stroke-dashoffset: 851px;"></path> </svg>
