<!--?xml version="1.0" encoding="utf-8"?-->
<svg version="1.1" id="Layer_1" xmlns="http://www.w3.org/2000/svg" xmlns:xlink="http://www.w3.org/1999/xlink" x="0px" y="0px" viewBox="0 0 109.4 126" style="enable-background:new 0 0 109.4 126;" xml:space="preserve"><style type="text/css">.deployment-svg .st0 {
                    fill: none;
                    stroke: #8e8e8e;
                    stroke-miterlimit: 10;
                  }</style><g> <g> <g> <g> <polygon class="st0" points="35,71.1 58,90 79.2,68.5 95.7,42.6 105.1,19.6 108.7,0.8 90.1,8.4 70.2,23.3 50.2,44.9 				"></polygon> <polyline class="st0" points="79.2,68 63.5,59.3 50.1,45.2 				"></polyline> <line class="st0" x1="63.5" y1="58.9" x2="39.5" y2="74.6"></line> <line class="st0" x1="53.5" y1="86.7" x2="63.5" y2="58.9"></line> <line class="st0" x1="70.3" y1="23.3" x2="95.8" y2="42.6"></line> <path class="st0" d="M64,59.1"></path> </g> </g> </g> <g> <line class="st0" x1="78.7" y1="68.3" x2="53.7" y2="86.7"></line> </g> <g> <line class="st0" x1="50" y1="45.1" x2="39.3" y2="74.7"></line> </g> <g> <g> <g> <path class="st0" d="M38.6,97.6"></path> </g> </g> <g> <line class="st0" x1="35.8" y1="96.1" x2="41.5" y2="89.5"></line> <line class="st0" x1="35.8" y1="96.1" x2="35.9" y2="85.8"></line> <line class="st0" x1="25.3" y1="97.6" x2="35.8" y2="96.1"></line> <line class="st0" x1="25.3" y1="97.6" x2="25.9" y2="88.3"></line> <line class="st0" x1="35.7" y1="85.8" x2="41.6" y2="89.5"></line> <polygon class="st0" points="15.3,113.4 15,120.8 24.5,109.5 			"></polygon> <polyline class="st0" points="35.8,101.5 24.7,106.3 25.3,97.6 17.7,98.9 25.9,88.3 36,85.8 			"></polyline> <polyline class="st0" points="35.8,96.1 44.9,95 43.4,103.6 35.6,112.7 35.8,101.5 			"></polyline> <polygon class="st0" points="22,119.1 32.6,114.8 32.2,107.9 			"></polygon> <polygon class="st0" points="16.3,102.3 21.9,101.3 15.6,108.8 			"></polygon> <line class="st0" x1="25.9" y1="88.3" x2="35.8" y2="96.1"></line> <line class="st0" x1="35.7" y1="95.9" x2="35.8" y2="101.5"></line> <line class="st0" x1="41.4" y1="89.3" x2="45" y2="94.9"></line> </g> </g> <polyline class="st0" points="92.5,40.3 63.6,59.4 72.9,25.4 	"></polyline> <line class="st0" x1="108.6" y1="0.8" x2="63.6" y2="59.1"></line> <polygon class="st0" points="93.2,30.2 84.2,23.3 71.4,32.2 77.6,40.7 86.4,44.1 	"></polygon> <line class="st0" x1="105.2" y1="19.3" x2="93.2" y2="30"></line> <line class="st0" x1="84.2" y1="23.3" x2="90.1" y2="8.7"></line> </g> <polyline class="st0" points="78.8,68.8 81,100.6 57.9,125.3 54.5,122.9 60,100.8 62.4,85.3 "></polyline> <line class="st0" x1="60" y1="100.9" x2="79.8" y2="85.5"></line> <line class="st0" x1="81" y1="100.6" x2="54.5" y2="122.9"></line> <line class="st0" x1="80.7" y1="100.7" x2="62.4" y2="85.2"></line> <polyline class="st0" points="49.7,45.3 18.4,50.2 0.7,79 3.7,81.5 22.9,71.2 38,65.4 "></polyline> <line class="st0" x1="22.8" y1="71.3" x2="34.6" y2="47.5"></line> <line class="st0" x1="18.4" y1="50.2" x2="3.7" y2="81.5"></line> <line class="st0" x1="18.4" y1="50.3" x2="38.1" y2="65.4"></line> <line class="st0" x1="106.8" y1="10.9" x2="99.2" y2="4.9"></line> </svg>
